<?xml version="1.0" encoding="UTF-8" standalone="no"?>
<svg width="300px" height="71px" viewBox="0 0 300 71" version="1.1" xmlns="http://www.w3.org/2000/svg" xmlns:xlink="http://www.w3.org/1999/xlink" xmlns:sketch="http://www.bohemiancoding.com/sketch/ns">
    <!-- Generator: Sketch 3.0.1 (7597) - http://www.bohemiancoding.com/sketch -->
    <title>logo</title>
    <description>Created with Sketch.</description>
    <defs></defs>
    <g id="Page-1" stroke="none" stroke-width="1" fill="none" fill-rule="evenodd" sketch:type="MSPage">
        <g id="logo" sketch:type="MSLayerGroup">
            <g id="Group" sketch:type="MSShapeGroup">
                <path d="M299.856089,22.864254 C297.278967,22.9003175 294.695203,22.7245079 292.131365,23.142619 C288.787085,23.6880794 285.789299,24.9086032 283.633948,27.7316984 C282.116236,29.7196984 281.532841,32.0097302 281.537269,34.4969841 C281.546125,41.1630952 281.525092,47.8280794 281.560517,54.4941905 C281.564945,55.236873 281.349077,55.3721111 280.674908,55.3619683 C278.139852,55.3225238 275.60369,55.3304127 273.067528,55.3597143 C272.54059,55.3653492 272.418819,55.2143333 272.419926,54.6925397 C272.438745,47.7672222 272.401107,40.8452857 272.438745,33.9222222 C272.494096,24.2380476 279.416236,15.9378095 288.748339,14.3093175 C289.905166,14.1075873 291.076384,14.0050317 292.254244,14.0050317 C294.788192,14.0061587 297.321033,13.9960159 299.854982,13.989254 L299.854982,22.864254 L299.856089,22.864254 Z" id="Shape" fill="#DC1329"></path>
                <path d="M0,31.879 C0.296678967,31.3166349 0.272324723,30.6776349 0.390774908,30.0735714 C2.03136531,21.7000794 8.93579336,15.1793492 17.2771218,14.1594286 C19.2509225,13.918254 21.2357934,14.0241905 23.2173432,14.0095397 C24.4151292,14.0016508 25.6151292,14.0298254 26.8129151,13.9971429 C27.2767528,13.984746 27.3896679,14.1368889 27.3863469,14.5910635 C27.3653137,17.1729841 27.3642066,19.7549048 27.3874539,22.3368254 C27.3907749,22.787619 27.2479705,22.8721429 26.8394834,22.8732698 C24.8357934,22.8811587 22.8309963,22.7864921 20.8306273,22.9972381 C18.0885609,23.284619 15.4826568,23.9856032 13.2387454,25.6918571 C10.4889299,27.7846667 9.13394834,30.6280476 9.12066421,34.1070476 C9.09741697,40.1397937 9.11402214,46.1725397 9.11402214,52.2052857 C9.11402214,53.0493968 9.08302583,53.8957619 9.12509225,54.738746 C9.15055351,55.2503968 8.96900369,55.3608413 8.49852399,55.3574603 C5.91697417,55.3349206 3.33431734,55.3450635 0.752767528,55.3484444 C0.501476015,55.3495714 0.251291513,55.382254 0,55.4002857 L0,31.879 L0,31.879 Z" id="Shape" fill="#DC1329"></path>
                <path d="M174.234686,0 C175.472325,0.398952381 176.605904,0.960190476 177.398524,2.07026984 C178.719188,3.92415873 178.718081,6.43395238 177.38524,8.23712698 C176.053506,10.0369206 173.740959,10.7469206 171.640959,9.99747619 C169.503321,9.23901587 168.212546,7.23974603 168.285609,4.8065873 C168.348708,2.70926984 169.910701,0.758460317 172.004059,0.163412698 C172.151292,0.121714286 172.337269,0.175809524 172.4369,5.31761584e-16 L174.234686,5.31761584e-16 L174.234686,0 Z" id="Shape" fill="#DC1329"></path>
                <path d="M157.494465,70.6111905 C156.542435,70.1739206 155.678967,69.6633968 155.35572,68.5296508 C154.926199,67.021746 155.428782,65.4067778 156.612177,64.6911429 C157.846494,63.9428254 159.650923,64.113 160.590775,65.0889683 C161.509594,66.0423968 161.618081,67.2144603 161.30369,68.4237143 C161.000369,69.5845079 160.217712,70.29 159.03321,70.503 C158.975646,70.5131429 158.930258,70.572873 158.878229,70.6123175 L157.494465,70.6123175 L157.494465,70.6111905 Z M159.493727,67.4274603 C159.494834,66.3478095 159.048708,65.6366825 158.363469,65.6242857 C157.639483,65.6107619 157.149077,66.3466825 157.153506,67.4376032 C157.160148,68.4868254 157.638376,69.1990794 158.338007,69.1990794 C159.040959,69.2002063 159.493727,68.5048571 159.493727,67.4274603 L159.493727,67.4274603 Z" id="Shape" fill="#292928"></path>
                <path d="M278.272694,70.6111905 C278.220664,70.3970635 278.009225,70.4489048 277.878598,70.3981905 C276.523616,69.8685079 275.902583,68.8508413 275.986716,67.2595397 C276.0631,65.7922063 276.883395,64.6933968 278.158672,64.3451587 C280.289668,63.7625079 282.143911,65.6152698 281.62583,67.7847143 C281.549446,68.1025238 281.372325,68.0551905 281.177491,68.0551905 C280.232103,68.0585714 279.290037,68.0506825 278.345756,68.0630794 C278.183026,68.0653333 277.942804,67.9424921 277.860886,68.1701429 C277.778967,68.3932857 277.953875,68.5724762 278.106642,68.7088413 C278.595941,69.1461111 279.194834,69.1596349 279.800369,69.1280794 C279.981919,69.1168095 280.181181,69.1314603 280.342804,69.0604603 C281.109963,68.730254 281.157565,69.2295079 281.27048,69.796381 C281.413284,70.5210317 280.805535,70.2606984 280.54428,70.4489048 C280.408118,70.5469524 280.165683,70.3564921 280.072694,70.6123175 L278.272694,70.6123175 L278.272694,70.6111905 Z M279.892251,66.6881587 C279.840221,66.0705714 279.617712,65.6434444 279.023247,65.5521587 C278.465314,65.4665079 278.112177,65.7798095 277.888561,66.2677937 C277.772325,66.527 277.786716,66.7061905 278.15203,66.6937937 C278.701107,66.6735079 279.250185,66.6881587 279.892251,66.6881587 L279.892251,66.6881587 Z" id="Shape" fill="#292928"></path>
                <path d="M238.014022,70.6123175 C237.259041,70.151381 236.650185,69.6115556 236.721033,68.586 C236.784133,67.6517302 237.280074,67.0882381 238.091513,66.7501429 C238.62952,66.525873 239.19631,66.4447302 239.773063,66.3973968 C239.913653,66.386127 240.141697,66.4706508 240.164945,66.2373651 C240.180443,66.0852222 240.087454,65.9251905 239.949077,65.817 C239.613653,65.5521587 239.225092,65.536381 238.830996,65.5837143 C238.604059,65.6096349 238.382657,65.6840159 238.15572,65.7268413 C237.92214,65.7719206 237.6631,66.102127 237.49262,65.8981429 C237.302214,65.6704921 237.272325,65.2963333 237.184871,64.9819048 C237.112915,64.7181905 237.330996,64.6753651 237.494834,64.607746 C238.415867,64.2256984 239.375646,64.1310317 240.339852,64.329381 C241.379336,64.5435079 241.985978,65.32 242.039114,66.4312063 C242.1,67.6708889 241.976015,68.9162063 242.143173,70.1536349 C242.156458,70.2640794 242.186347,70.3835397 242.059041,70.4635556 C241.678229,70.7024762 240.482657,70.3722698 240.284502,69.9293651 C239.983395,70.3260635 239.516236,70.4004444 239.119926,70.6111905 L238.014022,70.6111905 L238.014022,70.6123175 Z M240.244649,68.1340794 C240.25572,67.6539841 240.25572,67.6539841 239.912546,67.6336984 C239.187454,67.5965079 238.564207,68.0022222 238.575277,68.5296508 C238.584133,68.9748095 238.828782,69.2103492 239.266052,69.2204921 C239.849446,69.2362698 240.230258,68.8125238 240.244649,68.1340794 L240.244649,68.1340794 Z" id="Shape" fill="#292928"></path>
                <path d="M196.784502,70.6111905 C195.643173,70.151381 195.359779,69.2159841 195.41845,68.0788571 C195.441697,67.6100317 195.430627,67.1400794 195.419557,66.671254 C195.409594,66.2520159 195.62214,65.7662857 194.821771,65.747127 C194.443173,65.7347302 194.703321,65.108127 194.640221,64.7643968 C194.595941,64.5153333 194.683395,64.3519206 194.972325,64.3891111 C195.270111,64.4251746 195.497048,64.3609365 195.41845,63.9867778 C195.282288,63.333127 195.654244,63.1595714 196.183395,63.0288413 C197.249446,62.766254 197.272694,62.7437143 197.262731,63.8368889 C197.256089,64.3338889 197.454244,64.4172857 197.871587,64.4015079 C198.098524,64.3913651 198.47048,64.2358413 198.544649,64.5153333 C198.642066,64.8849841 198.656458,65.3357778 198.533579,65.6896508 C198.445018,65.9533651 198.034317,65.8046032 197.77417,65.7933333 C197.395572,65.7775556 197.242804,65.8801111 197.266052,66.2937143 C197.302583,66.9484921 197.273801,67.6055238 197.293727,68.2614286 C197.309225,68.7651905 197.590406,69.0999048 198.078598,69.015381 C198.627675,68.9207143 198.575646,69.225 198.563469,69.5664762 C198.549077,69.933873 198.646494,70.3283175 198.305535,70.6123175 L196.784502,70.6123175 L196.784502,70.6111905 Z" id="Shape" fill="#292928"></path>
                <path d="M136.740221,70.6111905 C136.695941,70.5638571 136.661624,70.4951111 136.608487,70.4748254 C135.852399,70.1795556 135.697417,69.7366508 136.061624,69.0063651 C136.213284,68.7043333 136.379336,68.9105714 136.512177,68.9612857 C136.99262,69.1461111 137.477491,69.2644444 137.994465,69.2080952 C138.244649,69.1810476 138.449446,69.0660952 138.491513,68.8057619 C138.529151,68.5724762 138.378598,68.4034286 138.180443,68.3098889 C137.910332,68.1825397 137.630258,68.0777302 137.354613,67.9627778 C136.368266,67.5536825 135.871218,66.9067937 135.930996,66.1156508 C135.999631,65.2118095 136.673801,64.4837778 137.675646,64.3012063 C138.337638,64.180619 139.002952,64.2245714 139.656089,64.4240476 C140.412177,64.6584603 139.840959,65.1329206 139.840959,65.4935556 C139.840959,65.9218095 139.606273,65.8767302 139.290775,65.7572698 C138.953137,65.6310476 138.593358,65.4991905 138.216974,65.6085079 C138.012177,65.6671111 137.808487,65.7527619 137.766421,65.9905556 C137.723247,66.2384921 137.90369,66.3793651 138.090775,66.4683968 C138.380812,66.6070159 138.689668,66.7061905 138.98524,66.8335397 C139.950554,67.2482698 140.406642,67.9323492 140.315867,68.8159048 C140.225092,69.6915714 139.645018,70.2663333 138.623247,70.4894762 C138.533579,70.5086349 138.44059,70.505254 138.400738,70.6100635 L136.740221,70.6100635 L136.740221,70.6111905 Z" id="Shape" fill="#292928"></path>
                <path d="M105.891144,16.7683968 L105.891144,16.0110635 C105.891144,11.9032063 105.903321,7.79647619 105.876753,3.68974603 C105.873432,3.0958254 106.041697,2.95607937 106.605166,2.96171429 C109.325092,2.99214286 112.045018,2.98763492 114.766052,2.96509524 C115.250923,2.9605873 115.429151,3.04060317 115.428044,3.60071429 C115.409225,15.9434444 115.410332,28.2884286 115.423616,40.6334127 C115.424723,41.1304127 115.347232,41.318619 114.794834,41.3129841 C112.121402,41.2803016 109.446863,41.2848095 106.773432,41.3096032 C106.286347,41.3129841 106.161255,41.1698571 106.15572,40.679619 C106.132472,38.2419524 106.305166,35.7986508 105.984133,33.37 C105.637638,30.7565238 104.923616,28.2850476 103.24428,26.202381 C101.681181,24.2628413 99.6221402,23.2068571 97.2309963,22.792127 C93.3730627,22.1238254 89.8660517,22.8924286 86.8261993,25.5025238 C81.3476015,30.2043016 80.9258303,40.3832222 88.802214,44.8528413 C91.0173432,46.1105556 93.4062731,46.7112381 95.9280443,46.8059048 C96.8723247,46.8397143 97.8166052,46.86 98.7608856,46.8543651 C99.1217712,46.8521111 99.2357934,46.9670635 99.2335793,47.3367143 C99.2214022,50.0347143 99.2247232,52.7338413 99.2302583,55.4329683 C99.2302583,55.7259841 99.204797,55.9051746 98.8339483,55.9186984 C92.4553506,56.1294444 86.5317343,54.7691746 81.4162362,50.6658254 C71.4365314,42.6586032 71.298155,28.5949683 79.4269373,19.9926984 C83.9335793,15.2233016 89.5195572,13.0887937 95.997786,13.4606984 C99.3154982,13.6500317 102.397417,14.697 105.230258,16.4776349 C105.386347,16.5756825 105.542435,16.6759841 105.702952,16.7672698 C105.736162,16.7841746 105.788192,16.7683968 105.891144,16.7683968" id="Shape" fill="#DC1329"></path>
                <path d="M57.4704797,40.1713492 C53.4121771,40.1713492 49.3538745,40.1544444 45.295572,40.1905079 C44.6590406,40.1961429 44.5428044,40.0056825 44.5516605,39.407254 C44.5859779,36.9414127 44.5892989,34.4766984 44.5494465,32.0119841 C44.5394834,31.3966508 44.7309963,31.2997302 45.2822878,31.3019841 C50.2859779,31.3256508 55.2896679,31.3166349 60.2933579,31.3166349 C61.1490775,31.3166349 61.1734317,31.308746 60.9542435,30.4781587 C59.8361624,26.2159048 57.0332103,23.6103175 52.9239852,22.6354762 C45.2889299,20.8244127 38.9457565,25.7538413 38.2948339,33.367746 C37.6926199,40.4237937 42.1472325,45.9764444 49.0306273,46.8318254 C50.7276753,47.0436984 52.4302583,47.0899048 54.1350554,47.0504603 C54.6276753,47.0369365 54.7483395,47.1969683 54.7439114,47.6815714 C54.7217712,50.2161587 54.7350554,52.751873 54.7306273,55.2875873 C54.7306273,55.5704603 54.8413284,55.9265873 54.3343173,55.9130635 C51.6210332,55.8465714 48.8867159,56.1407143 46.202214,55.5614444 C37.5177122,53.6827619 31.9428044,48.348746 29.698893,39.6394127 C26.9136531,28.824873 33.4483395,17.3611905 43.9682657,14.273254 C55.0273063,11.0241587 66.1937269,17.396127 69.4428044,28.7966984 C70.299631,31.804619 70.495572,34.8779048 70.4202952,37.986127 C70.40369,38.6882381 70.6571956,39.6292698 70.3084871,40.0259683 C69.9088561,40.4812698 68.9667897,40.1634603 68.2616236,40.1657143 C64.6649446,40.1781111 61.0671587,40.1713492 57.4704797,40.1713492" id="Shape" fill="#DC1329"></path>
                <path d="M255.291144,40.1713492 C251.209594,40.1713492 247.129151,40.1612063 243.048708,40.183746 C242.532841,40.188254 242.391144,40.0620317 242.397786,39.5267143 C242.425461,37.0169206 242.425461,34.504873 242.397786,31.9928254 C242.391144,31.4484921 242.522878,31.2997302 243.069742,31.3019841 C248.096679,31.3256508 253.121402,31.3064921 258.148339,31.3267778 C258.753875,31.3290317 258.991882,31.2715556 258.807011,30.5491587 C257.692251,26.2046349 254.858303,23.5573492 250.693727,22.6275873 C241.30738,20.5257619 235.145756,28.1058571 236.186347,36.2359206 C236.941328,42.1210317 241.088192,46.1669048 246.861255,46.8340794 C248.536162,47.0290476 250.214391,47.0921587 251.895941,47.0504603 C252.383026,47.0369365 252.564576,47.1203333 252.556827,47.6838254 C252.520295,50.2420794 252.542435,52.8003333 252.541328,55.3597143 C252.541328,55.6290635 252.621033,55.9288413 252.160517,55.9153175 C249.446125,55.8465714 246.711808,56.1395873 244.026199,55.5614444 C235.428044,53.7064286 229.843173,48.4377778 227.582657,39.832127 C224.786347,29.1866349 230.736531,18.1489524 240.956458,14.5493651 C251.964576,10.6702857 263.830627,16.9983016 267.197048,28.5262222 C268.088192,31.5735873 268.333948,34.6885714 268.254244,37.845254 C268.236531,38.5924444 268.565314,39.5729206 268.131365,40.0214603 C267.667528,40.5026825 266.693358,40.1612063 265.942804,40.1645873 C262.393727,40.1803651 258.843542,40.1713492 255.291144,40.1713492" id="Shape" fill="#DC1329"></path>
                <path d="M193.964945,22.7053492 C194.030258,25.0167937 193.860886,27.8094603 194.107749,30.598746 C194.611439,36.2708571 197.190775,40.7675238 201.521402,44.2825873 C202.187823,44.8224127 202.888561,45.3160317 203.556089,45.8558571 C203.851661,46.0936508 204.068635,46.1229524 204.397417,45.8817778 C209.771956,41.957619 213.135055,36.778 213.901107,30.0048254 C214.042804,28.752746 214.038376,27.478127 214.043911,26.2125238 C214.060517,22.362746 214.05941,18.5129683 214.038376,14.6631905 C214.036162,14.1515397 214.140221,13.985873 214.676015,13.9926349 C217.281919,14.0241905 219.886716,14.0264444 222.49262,13.9926349 C223.061624,13.984746 223.172325,14.1695714 223.169004,14.7060159 C223.146863,18.7192063 223.266421,22.7369048 223.138007,26.7467143 C222.706273,40.2153016 216.404059,49.8284762 204.554613,55.7395079 C204.172694,55.9299683 203.860517,55.946873 203.461993,55.7564127 C193.621771,51.049 187.53321,43.3223968 185.352399,32.4571429 C185.004797,30.7339841 184.859779,28.9770159 184.859779,27.2144127 C184.859779,23.0580952 184.875277,18.9040317 184.842066,14.7488413 C184.837638,14.1019524 185.023616,13.985873 185.609225,13.9937619 C188.190775,14.0275714 190.774539,14.0208095 193.358303,13.9971429 C193.838745,13.9926349 193.980443,14.125619 193.977122,14.622619 C193.953875,17.1572063 193.964945,19.6929206 193.964945,22.7053492" id="Shape" fill="#DC1329"></path>
                <path d="M135.686347,44.094381 C135.686347,40.8080952 135.687454,37.5218095 135.686347,34.2355238 C135.683026,24.921 141.722878,16.965619 150.571218,14.627127 C152.026937,14.2428254 153.510332,14.0399683 155.009225,14.0174286 C157.497786,13.985873 159.988561,14.0185556 162.479336,13.9993968 C162.914391,13.9960159 163.072694,14.0929365 163.068266,14.5741587 C163.043911,17.1560794 163.04059,19.738 163.068266,22.3199206 C163.074908,22.8236825 162.884502,22.8732698 162.474908,22.8732698 C160.12583,22.8766508 157.771218,22.7583175 155.437638,23.1347302 C152.391144,23.6283492 149.608118,24.6775714 147.458303,27.0555079 C145.620664,29.0874603 144.809225,31.526254 144.801476,34.2479206 C144.782657,41.0323651 144.784871,47.8145556 144.811439,54.597873 C144.813653,55.236873 144.640959,55.3709841 144.045387,55.3630952 C141.462731,55.3281587 138.880074,55.3360476 136.298524,55.3585873 C135.815867,55.3630952 135.67417,55.2244762 135.677491,54.7274762 C135.69631,51.1831111 135.686347,47.638746 135.686347,44.094381" id="Shape" fill="#DC1329"></path>
                <path d="M178.384871,34.7426667 C178.384871,41.5023175 178.376015,48.2630952 178.401476,55.022746 C178.40369,55.6549841 178.242066,55.7913492 177.643173,55.7834603 C174.739483,55.7496508 171.833579,55.7575397 168.927675,55.7800794 C168.428413,55.7845873 168.270111,55.6809048 168.272325,55.1331905 C168.28893,41.5428889 168.28893,27.9537143 168.272325,14.3611587 C168.272325,13.8224603 168.417343,13.7097619 168.923247,13.7142698 C171.829151,13.7401905 174.732841,13.7435714 177.638745,13.7120159 C178.221033,13.706381 178.40369,13.8145714 178.401476,14.4625873 C178.373801,21.2222381 178.384871,27.9830159 178.384871,34.7426667" id="Shape" fill="#DC1329"></path>
                <path d="M219.535793,68.4090635 C219.78155,67.2324921 220.050554,66.0525397 220.260886,64.8613175 C220.32952,64.4725079 220.465683,64.3575556 220.83321,64.3812222 C221.264945,64.4105238 221.702214,64.3879841 222.219188,64.3879841 C221.618081,66.3703492 221.034686,68.2794603 220.467897,70.1953333 C220.399262,70.434254 220.277491,70.4567937 220.076015,70.4770794 C218.67786,70.6111905 218.674539,70.6156984 218.316974,69.2610635 C218.114391,68.5014762 217.928413,67.736254 217.707011,66.8605873 C217.411439,67.9346032 217.112546,68.9060635 216.891144,69.8933016 C216.789299,70.3486032 216.618819,70.4928571 216.162731,70.4827143 C214.950554,70.4590476 214.956089,70.4804603 214.625092,69.3162857 C214.16679,67.6990635 213.700738,66.0874762 213.213653,64.3868571 C213.790406,64.3868571 214.312915,64.4048889 214.835424,64.3823492 C215.177491,64.3665714 215.17417,64.5930952 215.219557,64.8286349 C215.446494,66.0243651 215.683395,67.2167143 215.949077,68.5769841 C216.219188,67.517619 216.452768,66.599127 216.686347,65.6817619 C216.712915,65.5679365 216.72952,65.4518571 216.756089,65.3391587 C216.989668,64.4060159 217.385978,64.1749841 218.299262,64.3800952 C218.589299,64.4465873 218.571587,64.6708571 218.616974,64.8500476 C218.866052,65.8237619 219.09631,66.8031111 219.327675,67.7824603 C219.379705,68.0078571 219.394096,68.2445238 219.535793,68.4090635" id="Shape" fill="#292928"></path>
                <path d="M176.92583,68.087873 C176.92583,67.5480476 176.911439,67.0093492 176.930258,66.4706508 C176.944649,66.0694444 176.970111,65.7189524 176.38893,65.7910794 C176.044649,65.8339048 176.132103,65.5093333 176.154244,65.3380317 C176.20738,64.9424603 175.835424,64.2933175 176.734317,64.3609365 C177.047601,64.3846032 176.907011,63.9867778 176.933579,63.7827937 C177.147232,62.1407778 178.202214,61.344 179.830627,61.5468571 C180.275646,61.6020794 180.356458,61.771127 180.306642,62.1633175 C180.249077,62.623127 180.462731,63.2114127 179.580443,63.0615238 C179.094465,62.979254 178.711439,63.6419206 178.8,64.1637143 C178.868635,64.5649206 179.171956,64.398127 179.338007,64.3733333 C179.930258,64.2888095 180.002214,64.5840794 179.995572,65.0889683 C179.98893,65.5792063 179.954613,65.9319524 179.342435,65.8046032 C178.867528,65.7065556 178.782288,65.9466032 178.791144,66.3804921 C178.818819,67.5987619 178.793358,68.8181587 178.808856,70.0364286 C178.812177,70.3519841 178.752399,70.4725714 178.402583,70.4849683 C176.926937,70.5424444 176.926937,70.5570952 176.926937,69.0739841 L176.926937,68.087873 L176.92583,68.087873 Z" id="Shape" fill="#292928"></path>
                <path d="M259.37048,65.2591429 C259.728044,64.681 260.167528,64.2696508 260.856089,64.2437302 C261.184871,64.2302063 261.397417,64.2888095 261.337638,64.6979048 C261.309963,64.8804762 261.317712,65.0731905 261.335424,65.2602698 C261.380812,65.7764286 261.355351,66.1145238 260.64797,66.0705714 C259.969373,66.028873 259.570849,66.5450317 259.545387,67.3305397 C259.514391,68.2208571 259.518819,69.1134286 259.540959,70.004873 C259.549815,70.3722698 259.439114,70.4736984 259.076015,70.4827143 C257.657934,70.5176508 257.662362,70.5323016 257.657934,69.0976508 C257.653506,67.6889206 257.657934,66.2813175 257.62583,64.8737143 C257.61476,64.4623651 257.746494,64.322619 258.126199,64.3857302 C258.149446,64.3902381 258.172694,64.3868571 258.194834,64.3868571 C259.142435,64.3778413 259.142435,64.3778413 259.37048,65.2591429" id="Shape" fill="#292928"></path>
            </g>
        </g>
    </g>
</svg>